<svg xmlns="http://www.w3.org/2000/svg" version="1.1" xmlns:xlink="http://www.w3.org/1999/xlink" width="716" height="716"><svg xmlns="http://www.w3.org/2000/svg" version="1.1" xmlns:xlink="http://www.w3.org/1999/xlink" width="716" height="716"><svg xmlns="http://www.w3.org/2000/svg" width="716" height="716" fill="none"><rect width="716" height="716" fill="#721ad6" rx="358"></rect><path fill="#fff" d="M482 446.917c0 63.617-41.77 126.636-124.654 126.636-76.233 0-123.346-49.717-123.346-121.948h7.961c0 66.289 43.787 114.043 114.076 114.043 68.325 0 104.097-42.412 104.097-85.532 0-108.701-212.174-45.738-212.174-176.353 0-51.026 37.134-96.763 108.077-96.763 67.616 0 97.499 33.145 97.499 74.248 0 13.901-3.327 23.223-7.962 30.474l-7.307-3.98c3.327-5.288 7.307-13.901 7.307-26.494 0-37.124-26.501-66.289-89.537-66.289-56.384 0-84.194 28.511-84.194 61.656 0 95.399 210.157 42.357 210.157 170.302"></path><path fill="#fff" d="M482 446.917c0 63.617-41.77 126.636-124.654 126.636-76.233 0-123.346-49.717-123.346-121.948h7.961c0 66.289 43.787 114.043 114.076 114.043 68.325 0 104.097-42.412 104.097-85.532 0-108.701-212.174-45.738-212.174-176.353 0-51.026 37.134-96.763 108.077-96.763 67.616 0 97.499 33.145 97.499 74.248 0 13.901-3.327 23.223-7.962 30.474l-7.307-3.98c3.327-5.288 7.307-13.901 7.307-26.494 0-37.124-26.501-66.289-89.537-66.289-56.384 0-84.194 28.511-84.194 61.656 0 95.399 210.157 42.357 210.157 170.302M256 145.55c0-17.881 13.905-31.128 31.191-31.128 17.885 0 31.136 13.247 31.136 31.128 0 17.226-13.251 31.182-31.136 31.182C269.959 176.677 256 162.776 256 145.55m11.342 3.598a3.595 3.595 0 0 0 3.599-3.598c0-9.213 6.98-16.191 16.195-16.191 2.018 0 3.654-1.635 3.654-3.598s-1.636-3.598-3.654-3.598c-13.141 0-23.448 10.303-23.448 23.441 0 1.963 1.637 3.544 3.654 3.544m105.351-15.809c0-24.913 19.358-43.339 43.405-43.339 24.92 0 43.351 18.426 43.351 43.339 0 23.986-18.485 43.393-43.351 43.393-23.993-.055-43.405-19.407-43.405-43.393m11.669 0a4.14 4.14 0 0 0 4.145 4.143 4.14 4.14 0 0 0 4.144-4.143c0-13.356 10.088-23.441 23.447-23.441a4.14 4.14 0 0 0 4.145-4.143 4.143 4.143 0 0 0-4.145-4.144c-17.831 0-31.736 13.902-31.736 31.728"></path><path fill="#fff" d="M256 145.55c0-17.881 13.905-31.128 31.191-31.128 17.885 0 31.136 13.247 31.136 31.128 0 17.226-13.251 31.182-31.136 31.182C269.959 176.677 256 162.776 256 145.55m11.342 3.598a3.595 3.595 0 0 0 3.599-3.598c0-9.213 6.98-16.191 16.195-16.191 2.018 0 3.654-1.635 3.654-3.598s-1.636-3.598-3.654-3.598c-13.141 0-23.448 10.303-23.448 23.441 0 1.963 1.637 3.544 3.654 3.544m105.351-15.809c0-24.913 19.358-43.339 43.405-43.339 24.92 0 43.351 18.426 43.351 43.339 0 23.986-18.485 43.393-43.351 43.393-23.993-.055-43.405-19.407-43.405-43.393m11.669 0a4.14 4.14 0 0 0 4.145 4.143 4.14 4.14 0 0 0 4.144-4.143c0-13.356 10.088-23.441 23.447-23.441a4.14 4.14 0 0 0 4.145-4.143 4.143 4.143 0 0 0-4.145-4.144c-17.831 0-31.736 13.902-31.736 31.728"></path><script></script></svg></svg><style>@media (prefers-color-scheme: light) { :root { filter: none; } }
@media (prefers-color-scheme: dark) { :root { filter: none; } }
</style></svg>